<svg version="1.1" xmlns="http://www.w3.org/2000/svg" viewBox="0 0 2410.8670146139025 653.5128586943986" width="4821.734029227805" height="1307.0257173887971">
  <!-- svg-source:excalidraw -->
  
  <defs>
    <style class="style-fonts">
      @font-face {
        font-family: "Virgil";
        src: url("https://file%2B.vscode-resource.vscode-cdn.net/Users/diegomejia/.vscode/extensions/pomdtr.excalidraw-editor-3.7.1/public//dist/excalidraw-assets/Virgil.woff2");
      }
      @font-face {
        font-family: "Cascadia";
        src: url("https://file%2B.vscode-resource.vscode-cdn.net/Users/diegomejia/.vscode/extensions/pomdtr.excalidraw-editor-3.7.1/public//dist/excalidraw-assets/Cascadia.woff2");
      }
      @font-face {
        font-family: "Assistant";
        src: url("https://file%2B.vscode-resource.vscode-cdn.net/Users/diegomejia/.vscode/extensions/pomdtr.excalidraw-editor-3.7.1/public//dist/excalidraw-assets/Assistant-Regular.woff2");
      }
    </style>
    <clipPath id="4Ke1aXk_XqHYiFJWKGFIp">
            <rect transform="translate(1.1368683772161603e-13 0) rotate(0 1205.4335073069512 326.7564293471993)" width="2410.8670146139025" height="653.5128586943986">
          </rect>
        </clipPath>
  </defs>
  <rect x="0" y="0" width="2410.8670146139025" height="653.5128586943986" fill="#ffffff"></rect><g clip-path="url(#4Ke1aXk_XqHYiFJWKGFIp)"><g stroke-linecap="round" transform="translate(123.19781800385215 148.50677738007192) rotate(0 30 30)"><path d="M60 30 C60 31.74, 59.85 33.5, 59.54 35.21 C59.24 36.92, 58.78 38.63, 58.19 40.26 C57.6 41.89, 56.85 43.5, 55.98 45 C55.11 46.5, 54.1 47.95, 52.98 49.28 C51.87 50.61, 50.61 51.87, 49.28 52.98 C47.95 54.1, 46.5 55.11, 45 55.98 C43.5 56.85, 41.89 57.6, 40.26 58.19 C38.63 58.78, 36.92 59.24, 35.21 59.54 C33.5 59.85, 31.74 60, 30 60 C28.26 60, 26.5 59.85, 24.79 59.54 C23.08 59.24, 21.37 58.78, 19.74 58.19 C18.11 57.6, 16.5 56.85, 15 55.98 C13.5 55.11, 12.05 54.1, 10.72 52.98 C9.39 51.87, 8.13 50.61, 7.02 49.28 C5.9 47.95, 4.89 46.5, 4.02 45 C3.15 43.5, 2.4 41.89, 1.81 40.26 C1.22 38.63, 0.76 36.92, 0.46 35.21 C0.15 33.5, 0 31.74, 0 30 C0 28.26, 0.15 26.5, 0.46 24.79 C0.76 23.08, 1.22 21.37, 1.81 19.74 C2.4 18.11, 3.15 16.5, 4.02 15 C4.89 13.5, 5.9 12.05, 7.02 10.72 C8.13 9.39, 9.39 8.13, 10.72 7.02 C12.05 5.9, 13.5 4.89, 15 4.02 C16.5 3.15, 18.11 2.4, 19.74 1.81 C21.37 1.22, 23.08 0.76, 24.79 0.46 C26.5 0.15, 28.26 0, 30 0 C31.74 0, 33.5 0.15, 35.21 0.46 C36.92 0.76, 38.63 1.22, 40.26 1.81 C41.89 2.4, 43.5 3.15, 45 4.02 C46.5 4.89, 47.95 5.9, 49.28 7.02 C50.61 8.13, 51.87 9.39, 52.98 10.72 C54.1 12.05, 55.11 13.5, 55.98 15 C56.85 16.5, 57.6 18.11, 58.19 19.74 C58.78 21.37, 59.24 23.08, 59.54 24.79 C59.85 26.5, 59.92 29.13, 60 30 C60.08 30.87, 60.08 29.13, 60 30" stroke="#000000" stroke-width="2" fill="none"></path></g></g><g clip-path="url(#4Ke1aXk_XqHYiFJWKGFIp)"><g stroke-linecap="round" transform="translate(138.19781800385215 163.50677738007198) rotate(0 15 15)"><path d="M30 15 C30 15.87, 29.92 16.75, 29.77 17.6 C29.62 18.46, 29.39 19.31, 29.1 20.13 C28.8 20.95, 28.42 21.75, 27.99 22.5 C27.56 23.25, 27.05 23.98, 26.49 24.64 C25.93 25.31, 25.31 25.93, 24.64 26.49 C23.98 27.05, 23.25 27.56, 22.5 27.99 C21.75 28.42, 20.95 28.8, 20.13 29.1 C19.31 29.39, 18.46 29.62, 17.6 29.77 C16.75 29.92, 15.87 30, 15 30 C14.13 30, 13.25 29.92, 12.4 29.77 C11.54 29.62, 10.69 29.39, 9.87 29.1 C9.05 28.8, 8.25 28.42, 7.5 27.99 C6.75 27.56, 6.02 27.05, 5.36 26.49 C4.69 25.93, 4.07 25.31, 3.51 24.64 C2.95 23.98, 2.44 23.25, 2.01 22.5 C1.58 21.75, 1.2 20.95, 0.9 20.13 C0.61 19.31, 0.38 18.46, 0.23 17.6 C0.08 16.75, 0 15.87, 0 15 C0 14.13, 0.08 13.25, 0.23 12.4 C0.38 11.54, 0.61 10.69, 0.9 9.87 C1.2 9.05, 1.58 8.25, 2.01 7.5 C2.44 6.75, 2.95 6.02, 3.51 5.36 C4.07 4.69, 4.69 4.07, 5.36 3.51 C6.02 2.95, 6.75 2.44, 7.5 2.01 C8.25 1.58, 9.05 1.2, 9.87 0.9 C10.69 0.61, 11.54 0.38, 12.4 0.23 C13.25 0.08, 14.13 0, 15 0 C15.87 0, 16.75 0.08, 17.6 0.23 C18.46 0.38, 19.31 0.61, 20.13 0.9 C20.95 1.2, 21.75 1.58, 22.5 2.01 C23.25 2.44, 23.98 2.95, 24.64 3.51 C25.31 4.07, 25.93 4.69, 26.49 5.36 C27.05 6.02, 27.56 6.75, 27.99 7.5 C28.42 8.25, 28.8 9.05, 29.1 9.87 C29.39 10.69, 29.62 11.54, 29.77 12.4 C29.92 13.25, 29.96 14.57, 30 15 C30.04 15.43, 30.04 14.57, 30 15" stroke="#000000" stroke-width="2" fill="none"></path></g></g><g clip-path="url(#4Ke1aXk_XqHYiFJWKGFIp)"><g stroke-linecap="round"><g transform="translate(153.19781800385215 178.50677738007198) rotate(0 5 2.5)"><path d="M0 0 C1.67 0.83, 8.33 4.17, 10 5 M0 0 C1.67 0.83, 8.33 4.17, 10 5" stroke="#000000" stroke-width="2" fill="none"></path></g></g><mask></mask></g><g clip-path="url(#4Ke1aXk_XqHYiFJWKGFIp)"><g stroke-linecap="round"><g transform="translate(153.19781800385215 178.50677738007198) rotate(0 2.5 -5)"><path d="M0 0 C0.83 -1.67, 4.17 -8.33, 5 -10 M0 0 C0.83 -1.67, 4.17 -8.33, 5 -10" stroke="#000000" stroke-width="2" fill="none"></path></g></g><mask></mask></g><g clip-path="url(#4Ke1aXk_XqHYiFJWKGFIp)"><g stroke-linecap="round"><g transform="translate(138.19781800385215 178.50677738007198) rotate(0 2.5 0)"><path d="M0 0 C0.83 0, 4.17 0, 5 0 M0 0 C0.83 0, 4.17 0, 5 0" stroke="#000000" stroke-width="2" fill="none"></path></g></g><mask></mask></g><g clip-path="url(#4Ke1aXk_XqHYiFJWKGFIp)"><g stroke-linecap="round"><g transform="translate(153.19781800385215 188.50677738007198) rotate(0 0 2.5)"><path d="M0 0 C0 0.83, 0 4.17, 0 5 M0 0 C0 0.83, 0 4.17, 0 5" stroke="#000000" stroke-width="2" fill="none"></path></g></g><mask></mask></g><g clip-path="url(#4Ke1aXk_XqHYiFJWKGFIp)"><g stroke-linecap="round"><g transform="translate(153.19781800385215 163.50677738007198) rotate(0 0 2.5)"><path d="M0 0 C0 0.83, 0 4.17, 0 5 M0 0 C0 0.83, 0 4.17, 0 5" stroke="#000000" stroke-width="2" fill="none"></path></g></g><mask></mask></g><g clip-path="url(#4Ke1aXk_XqHYiFJWKGFIp)"><g stroke-linecap="round"><g transform="translate(163.19781800385215 178.50677738007198) rotate(0 2.5 0)"><path d="M0 0 C0.83 0, 4.17 0, 5 0 M0 0 C0.83 0, 4.17 0, 5 0" stroke="#000000" stroke-width="2" fill="none"></path></g></g><mask></mask></g><g clip-path="url(#4Ke1aXk_XqHYiFJWKGFIp)"><g stroke-linecap="round" transform="translate(123.19567335692147 367.49401365160656) rotate(0 30 30)"><path d="M60 30 C60 31.74, 59.85 33.5, 59.54 35.21 C59.24 36.92, 58.78 38.63, 58.19 40.26 C57.6 41.89, 56.85 43.5, 55.98 45 C55.11 46.5, 54.1 47.95, 52.98 49.28 C51.87 50.61, 50.61 51.87, 49.28 52.98 C47.95 54.1, 46.5 55.11, 45 55.98 C43.5 56.85, 41.89 57.6, 40.26 58.19 C38.63 58.78, 36.92 59.24, 35.21 59.54 C33.5 59.85, 31.74 60, 30 60 C28.26 60, 26.5 59.85, 24.79 59.54 C23.08 59.24, 21.37 58.78, 19.74 58.19 C18.11 57.6, 16.5 56.85, 15 55.98 C13.5 55.11, 12.05 54.1, 10.72 52.98 C9.39 51.87, 8.13 50.61, 7.02 49.28 C5.9 47.95, 4.89 46.5, 4.02 45 C3.15 43.5, 2.4 41.89, 1.81 40.26 C1.22 38.63, 0.76 36.92, 0.46 35.21 C0.15 33.5, 0 31.74, 0 30 C0 28.26, 0.15 26.5, 0.46 24.79 C0.76 23.08, 1.22 21.37, 1.81 19.74 C2.4 18.11, 3.15 16.5, 4.02 15 C4.89 13.5, 5.9 12.05, 7.02 10.72 C8.13 9.39, 9.39 8.13, 10.72 7.02 C12.05 5.9, 13.5 4.89, 15 4.02 C16.5 3.15, 18.11 2.4, 19.74 1.81 C21.37 1.22, 23.08 0.76, 24.79 0.46 C26.5 0.15, 28.26 0, 30 0 C31.74 0, 33.5 0.15, 35.21 0.46 C36.92 0.76, 38.63 1.22, 40.26 1.81 C41.89 2.4, 43.5 3.15, 45 4.02 C46.5 4.89, 47.95 5.9, 49.28 7.02 C50.61 8.13, 51.87 9.39, 52.98 10.72 C54.1 12.05, 55.11 13.5, 55.98 15 C56.85 16.5, 57.6 18.11, 58.19 19.74 C58.78 21.37, 59.24 23.08, 59.54 24.79 C59.85 26.5, 59.92 29.13, 60 30 C60.08 30.87, 60.08 29.13, 60 30" stroke="#000000" stroke-width="2" fill="none"></path></g></g><g clip-path="url(#4Ke1aXk_XqHYiFJWKGFIp)"><g transform="translate(132.65084332606307 213.2075566629893) rotate(0 20.949981689453125 12.5)"><text x="0" y="0" font-family="Virgil, Segoe UI Emoji" font-size="20px" fill="#1e1e1e" text-anchor="start" style="white-space: pre;" direction="ltr" dominant-baseline="text-before-edge">Cron</text></g></g><g clip-path="url(#4Ke1aXk_XqHYiFJWKGFIp)"><g transform="translate(114.25926830658 430.4136670455282) rotate(0 38.89996337890625 12.5)"><text x="0" y="0" font-family="Virgil, Segoe UI Emoji" font-size="20px" fill="#1e1e1e" text-anchor="start" style="white-space: pre;" direction="ltr" dominant-baseline="text-before-edge">Webhook</text></g></g><g clip-path="url(#4Ke1aXk_XqHYiFJWKGFIp)"><g stroke-linecap="round" transform="translate(365.6057259638575 215.17658229240664) rotate(0 115.36338275615333 59.343645732458555)"><path d="M29.67 0 C87.13 0.15, 142.18 0.39, 201.05 0 M29.67 0 C94.29 -0.65, 156.75 0.23, 201.05 0 M201.05 0 C222.12 -0.86, 231.9 11.54, 230.73 29.67 M201.05 0 C219.28 0.93, 231.96 10.46, 230.73 29.67 M230.73 29.67 C229.49 48.28, 230.27 67.94, 230.73 89.02 M230.73 29.67 C230.83 42.24, 229.55 54.39, 230.73 89.02 M230.73 89.02 C230.7 110.7, 221.03 118.48, 201.05 118.69 M230.73 89.02 C230.41 108.74, 221.11 120.4, 201.05 118.69 M201.05 118.69 C134.23 119.77, 69.93 119.76, 29.67 118.69 M201.05 118.69 C144.99 119.85, 90.48 120.04, 29.67 118.69 M29.67 118.69 C11.63 117.97, 1.95 110.22, 0 89.02 M29.67 118.69 C9.66 116.41, -0.12 109.72, 0 89.02 M0 89.02 C-0.65 74.54, 1.94 59.11, 0 29.67 M0 89.02 C-0.28 65.06, -1.08 43.7, 0 29.67 M0 29.67 C-0.74 11.55, 10.06 0.94, 29.67 0 M0 29.67 C0.59 10.55, 10.43 -1.95, 29.67 0" stroke="#1e1e1e" stroke-width="2" fill="none"></path></g></g><g clip-path="url(#4Ke1aXk_XqHYiFJWKGFIp)"><g transform="translate(413.77915205497175 262.02022802486516) rotate(0 67.18995666503906 12.5)"><text x="67.18995666503906" y="0" font-family="Virgil, Segoe UI Emoji" font-size="20px" fill="#1e1e1e" text-anchor="middle" style="white-space: pre;" direction="ltr" dominant-baseline="text-before-edge">Ejecutar JQL</text></g></g><g clip-path="url(#4Ke1aXk_XqHYiFJWKGFIp)"><g stroke-linecap="round" transform="translate(800.6654065341759 215.2786426368532) rotate(0 115.36338275615333 59.343645732458555)"><path d="M29.67 0 C76.8 -2.22, 123.34 -0.85, 201.05 0 M29.67 0 C64.89 -0.6, 102.83 -1.66, 201.05 0 M201.05 0 C219.57 -0.99, 230.09 8.26, 230.73 29.67 M201.05 0 C220.03 -0.87, 232.08 9.58, 230.73 29.67 M230.73 29.67 C229.91 41.95, 229.81 56.33, 230.73 89.02 M230.73 29.67 C231.68 45.05, 231.09 61.81, 230.73 89.02 M230.73 89.02 C229.12 110.23, 219.85 116.76, 201.05 118.69 M230.73 89.02 C232.21 110.17, 219.41 118.04, 201.05 118.69 M201.05 118.69 C148.87 120.87, 94.17 120.82, 29.67 118.69 M201.05 118.69 C163.33 116.84, 126.74 117.45, 29.67 118.69 M29.67 118.69 C9.1 119.58, 0.42 108.69, 0 89.02 M29.67 118.69 C10.04 120.62, 0.11 106.62, 0 89.02 M0 89.02 C0.01 66.93, 0.98 44.45, 0 29.67 M0 89.02 C0.48 75.99, 1.17 62.74, 0 29.67 M0 29.67 C-2 10.79, 8.97 -1.4, 29.67 0 M0 29.67 C1.22 11.79, 9.13 1.96, 29.67 0" stroke="#1e1e1e" stroke-width="2" fill="none"></path></g></g><g clip-path="url(#4Ke1aXk_XqHYiFJWKGFIp)"><g transform="translate(846.7988393391574 262.1222883693117) rotate(0 69.22994995117188 12.5)"><text x="69.22994995117188" y="0" font-family="Virgil, Segoe UI Emoji" font-size="20px" fill="#1e1e1e" text-anchor="middle" style="white-space: pre;" direction="ltr" dominant-baseline="text-before-edge">Extraer Excel</text></g></g><g clip-path="url(#4Ke1aXk_XqHYiFJWKGFIp)"><g stroke-linecap="round" transform="translate(1237.314963585783 216.2013033262163) rotate(0 115.36338275615333 59.343645732458555)"><path d="M29.67 0 C88.65 1.62, 144.1 1.3, 201.05 0 M29.67 0 C92.62 -2.04, 155.18 -1.12, 201.05 0 M201.05 0 C220.96 1.74, 228.8 10.12, 230.73 29.67 M201.05 0 C221.22 1.01, 232.84 10.4, 230.73 29.67 M230.73 29.67 C230.96 46.83, 230.81 64.18, 230.73 89.02 M230.73 29.67 C229.82 43.42, 231.14 58.67, 230.73 89.02 M230.73 89.02 C230.53 107.98, 219.24 120.08, 201.05 118.69 M230.73 89.02 C229.65 106.7, 218.97 118.85, 201.05 118.69 M201.05 118.69 C137.28 116.88, 75.34 118.22, 29.67 118.69 M201.05 118.69 C144.55 120.57, 86.07 120.11, 29.67 118.69 M29.67 118.69 C9.9 120.42, 0.77 108.44, 0 89.02 M29.67 118.69 C8.8 118.65, 2.05 109.48, 0 89.02 M0 89.02 C0.49 75, -1.26 63.12, 0 29.67 M0 89.02 C-0.32 71.17, -0.54 53.55, 0 29.67 M0 29.67 C-0.43 7.89, 11.28 1.21, 29.67 0 M0 29.67 C0.94 11.36, 9.54 0.82, 29.67 0" stroke="#1e1e1e" stroke-width="2" fill="none"></path></g></g><g clip-path="url(#4Ke1aXk_XqHYiFJWKGFIp)"><g transform="translate(1254.2984253824638 263.04494905867483) rotate(0 98.37992095947266 12.5)"><text x="98.37992095947266" y="0" font-family="Virgil, Segoe UI Emoji" font-size="20px" fill="#1e1e1e" text-anchor="middle" style="white-space: pre;" direction="ltr" dominant-baseline="text-before-edge">Generar consolidado</text></g></g><g clip-path="url(#4Ke1aXk_XqHYiFJWKGFIp)"><g stroke-linecap="round" transform="translate(1670.297749853692 218.63679009918224) rotate(0 115.36338275615321 59.343645732458555)"><path d="M29.67 0 C89.08 -1.56, 143.75 0.36, 201.05 0 M29.67 0 C88.41 -1.7, 146.08 -0.9, 201.05 0 M201.05 0 C219.83 0.08, 230.93 8.34, 230.73 29.67 M201.05 0 C221.05 0.06, 228.68 10.28, 230.73 29.67 M230.73 29.67 C229.14 48.08, 230.34 71.03, 230.73 89.02 M230.73 29.67 C231.67 52.03, 230.27 75.13, 230.73 89.02 M230.73 89.02 C230.22 109.25, 222.17 117.19, 201.05 118.69 M230.73 89.02 C229.81 108.65, 219.96 117.06, 201.05 118.69 M201.05 118.69 C160.59 118.66, 116.75 119.35, 29.67 118.69 M201.05 118.69 C142.26 119.74, 82.33 119.56, 29.67 118.69 M29.67 118.69 C8.42 118.85, 1.25 110.14, 0 89.02 M29.67 118.69 C9.55 120.17, 0.32 110.18, 0 89.02 M0 89.02 C0.37 68.48, 1.08 50.47, 0 29.67 M0 89.02 C1.09 70.96, -0.67 51.85, 0 29.67 M0 29.67 C0.79 10.72, 9.19 -0.11, 29.67 0 M0 29.67 C-1.37 9.17, 9.15 0.35, 29.67 0" stroke="#1e1e1e" stroke-width="2" fill="none"></path></g></g><g clip-path="url(#4Ke1aXk_XqHYiFJWKGFIp)"><g transform="translate(1691.7512052416814 252.98043583164076) rotate(0 93.90992736816406 25)"><text x="93.90992736816406" y="0" font-family="Virgil, Segoe UI Emoji" font-size="20px" fill="#1e1e1e" text-anchor="middle" style="white-space: pre;" direction="ltr" dominant-baseline="text-before-edge">Generar link público</text><text x="93.90992736816406" y="25" font-family="Virgil, Segoe UI Emoji" font-size="20px" fill="#1e1e1e" text-anchor="middle" style="white-space: pre;" direction="ltr" dominant-baseline="text-before-edge">por 30d</text></g></g><g clip-path="url(#4Ke1aXk_XqHYiFJWKGFIp)"><g stroke-linecap="round" transform="translate(2106.0541907314 219.84357030295996) rotate(0 115.36338275615321 59.343645732458555)"><path d="M29.67 0 C82.57 -1.72, 135.39 0.01, 201.05 0 M29.67 0 C74.89 1.99, 120.38 1.5, 201.05 0 M201.05 0 C219.48 0.02, 232.61 8.02, 230.73 29.67 M201.05 0 C221.14 0.37, 229.91 11.06, 230.73 29.67 M230.73 29.67 C229.12 49.86, 229.64 65.48, 230.73 89.02 M230.73 29.67 C229.8 51.98, 231.44 72.74, 230.73 89.02 M230.73 89.02 C230.35 106.9, 222.11 117.48, 201.05 118.69 M230.73 89.02 C228.66 108.57, 222.78 120.11, 201.05 118.69 M201.05 118.69 C161.18 119.85, 119.58 121.04, 29.67 118.69 M201.05 118.69 C157.49 120.35, 113.72 119.24, 29.67 118.69 M29.67 118.69 C10.85 118.05, -0.62 108.43, 0 89.02 M29.67 118.69 C9.12 116.6, -0.93 110.47, 0 89.02 M0 89.02 C1.57 67.4, 0.84 46.37, 0 29.67 M0 89.02 C-0.37 67.43, -0.26 45.32, 0 29.67 M0 29.67 C-1.8 11, 8.2 -0.63, 29.67 0 M0 29.67 C-0.7 8.15, 10.26 -0.21, 29.67 0" stroke="#1e1e1e" stroke-width="2" fill="none"></path></g></g><g clip-path="url(#4Ke1aXk_XqHYiFJWKGFIp)"><g transform="translate(2163.3276152966355 266.68721603541854) rotate(0 58.08995819091797 12.5)"><text x="58.08995819091797" y="0" font-family="Virgil, Segoe UI Emoji" font-size="20px" fill="#1e1e1e" text-anchor="middle" style="white-space: pre;" direction="ltr" dominant-baseline="text-before-edge">Enviar email</text></g></g><g clip-path="url(#4Ke1aXk_XqHYiFJWKGFIp)"><g stroke-linecap="round"><g transform="translate(191.09876378612165 182.16601176125232) rotate(0 84.70760803351075 44.180403832899685)"><path d="M-1.13 0.07 C27.29 14.8, 141.37 72.95, 169.75 87.68 M0.47 -0.95 C28.84 14, 141.01 73.74, 168.98 88.86" stroke="#1e1e1e" stroke-width="2" fill="none"></path></g><g transform="translate(191.09876378612165 182.16601176125232) rotate(0 84.70760803351075 44.180403832899685)"><path d="M170.32 87.28 L155.93 87.58 L158.82 76.14 L168.96 88.46" stroke="none" stroke-width="0" fill="#1e1e1e" fill-rule="evenodd"></path><path d="M168.98 88.86 C165.58 88.94, 161.17 88.02, 154 88.02 M168.98 88.86 C163.78 88.96, 159.31 87.97, 154 88.02 M154 88.02 C156.66 85.3, 157.78 82.63, 159.99 76.85 M154 88.02 C156.36 84.09, 158.53 79.5, 159.99 76.85 M159.99 76.85 C162.03 80.28, 165.04 86.11, 168.98 88.86 M159.99 76.85 C163.36 81.21, 164.84 84.8, 168.98 88.86 M168.98 88.86 C168.98 88.86, 168.98 88.86, 168.98 88.86 M168.98 88.86 C168.98 88.86, 168.98 88.86, 168.98 88.86" stroke="#1e1e1e" stroke-width="2" fill="none"></path></g></g><mask></mask></g><g clip-path="url(#4Ke1aXk_XqHYiFJWKGFIp)"><g stroke-linecap="round"><g transform="translate(191.51527610584003 392.5070731758824) rotate(0 84.22206698664797 -52.476813956523245)"><path d="M-0.38 0.85 C27.79 -16.96, 140.4 -88.2, 168.56 -105.87 M1.63 0.25 C29.68 -16.92, 139.96 -87.45, 167.67 -104.81" stroke="#1e1e1e" stroke-width="2" fill="none"></path></g><g transform="translate(191.51527610584003 392.5070731758824) rotate(0 84.22206698664797 -52.476813956523245)"><path d="M166.46 -106.2 L159.16 -90.69 L154.57 -101.84 L166.82 -104.76" stroke="none" stroke-width="0" fill="#1e1e1e" fill-rule="evenodd"></path><path d="M167.67 -104.81 C166.7 -101.36, 162.35 -98.03, 159.57 -92.18 M167.67 -104.81 C165.19 -100.68, 163.48 -97.71, 159.57 -92.18 M159.57 -92.18 C157.34 -96.32, 155.17 -101.01, 152.79 -102.89 M159.57 -92.18 C157.91 -96, 155.13 -99.28, 152.79 -102.89 M152.79 -102.89 C158.88 -103.42, 162.91 -103.5, 167.67 -104.81 M152.79 -102.89 C156.3 -102.83, 159.34 -104.32, 167.67 -104.81 M167.67 -104.81 C167.67 -104.81, 167.67 -104.81, 167.67 -104.81 M167.67 -104.81 C167.67 -104.81, 167.67 -104.81, 167.67 -104.81" stroke="#1e1e1e" stroke-width="2" fill="none"></path></g></g><mask></mask></g><g clip-path="url(#4Ke1aXk_XqHYiFJWKGFIp)"><g transform="translate(318.96135672993216 348.5231923440512) rotate(0 184.92200318574265 4.9612089784615705)"><text x="0" y="0" font-family="Virgil, Segoe UI Emoji" font-size="7.9379343655385055px" fill="#1e1e1e" text-anchor="start" style="white-space: pre;" direction="ltr" dominant-baseline="text-before-edge">project = TRE AND status = "Pendiente de Pago" AND "Status V°B° para Pago" = Aprobado</text></g></g><g clip-path="url(#4Ke1aXk_XqHYiFJWKGFIp)"><g stroke-linecap="round"><g transform="translate(602.2975575097968 275.1371876106002) rotate(0 95.55186806019805 -0.14852676148521482)"><path d="M0 0 C31.85 -0.05, 159.25 -0.25, 191.1 -0.3 M0 0 C31.85 -0.05, 159.25 -0.25, 191.1 -0.3" stroke="#1e1e1e" stroke-width="2" fill="none"></path></g><g transform="translate(602.2975575097968 275.1371876106002) rotate(0 95.55186806019805 -0.14852676148521482)"><path d="M191.1 -0.3 L177.52 6.06 L177.5 -6.62 L191.1 -0.3" stroke="none" stroke-width="0" fill="#1e1e1e" fill-rule="evenodd"></path><path d="M191.1 -0.3 C186.62 1.8, 182.13 3.9, 177.52 6.06 M191.1 -0.3 C186.13 2.03, 181.15 4.36, 177.52 6.06 M177.52 6.06 C177.51 2.23, 177.51 -1.6, 177.5 -6.62 M177.52 6.06 C177.51 2.24, 177.51 -1.59, 177.5 -6.62 M177.5 -6.62 C181.69 -4.67, 185.87 -2.73, 191.1 -0.3 M177.5 -6.62 C182.67 -4.21, 187.84 -1.81, 191.1 -0.3 M191.1 -0.3 C191.1 -0.3, 191.1 -0.3, 191.1 -0.3 M191.1 -0.3 C191.1 -0.3, 191.1 -0.3, 191.1 -0.3" stroke="#1e1e1e" stroke-width="2" fill="none"></path></g></g><mask></mask></g><g clip-path="url(#4Ke1aXk_XqHYiFJWKGFIp)"><g stroke-linecap="round"><g transform="translate(1038.859457851322 274.96522115175253) rotate(0 94.86644128553485 0.000045848292472783214)"><path d="M0 0 C31.62 0, 158.11 0, 189.73 0 M0 0 C31.62 0, 158.11 0, 189.73 0" stroke="#1e1e1e" stroke-width="2" fill="none"></path></g><g transform="translate(1038.859457851322 274.96522115175253) rotate(0 94.86644128553485 0.000045848292472783214)"><path d="M189.73 0 L176.14 6.34 L176.14 -6.34 L189.73 0" stroke="none" stroke-width="0" fill="#1e1e1e" fill-rule="evenodd"></path><path d="M189.73 0 C184.91 2.25, 180.09 4.5, 176.14 6.34 M189.73 0 C186.18 1.66, 182.62 3.32, 176.14 6.34 M176.14 6.34 C176.14 2.31, 176.14 -1.71, 176.14 -6.34 M176.14 6.34 C176.14 1.45, 176.14 -3.43, 176.14 -6.34 M176.14 -6.34 C180.87 -4.13, 185.61 -1.92, 189.73 0 M176.14 -6.34 C179.58 -4.73, 183.03 -3.13, 189.73 0 M189.73 0 C189.73 0, 189.73 0, 189.73 0 M189.73 0 C189.73 0, 189.73 0, 189.73 0" stroke="#1e1e1e" stroke-width="2" fill="none"></path></g></g><mask></mask></g><g clip-path="url(#4Ke1aXk_XqHYiFJWKGFIp)"><g stroke-linecap="round"><g transform="translate(1473.6966883317455 276.7273270938556) rotate(0 95.01950250634957 0.40305503187516933)"><path d="M0 0 C31.67 0.13, 158.37 0.67, 190.04 0.81 M0 0 C31.67 0.13, 158.37 0.67, 190.04 0.81" stroke="#1e1e1e" stroke-width="2" fill="none"></path></g><g transform="translate(1473.6966883317455 276.7273270938556) rotate(0 95.01950250634957 0.40305503187516933)"><path d="M190.04 0.81 L176.42 7.09 L176.47 -5.59 L190.04 0.81" stroke="none" stroke-width="0" fill="#1e1e1e" fill-rule="evenodd"></path><path d="M190.04 0.81 C185.55 2.88, 181.05 4.95, 176.42 7.09 M190.04 0.81 C187.08 2.17, 184.11 3.54, 176.42 7.09 M176.42 7.09 C176.43 3.39, 176.45 -0.3, 176.47 -5.59 M176.42 7.09 C176.44 2.96, 176.45 -1.18, 176.47 -5.59 M176.47 -5.59 C179.82 -4.01, 183.17 -2.43, 190.04 0.81 M176.47 -5.59 C180.85 -3.52, 185.23 -1.46, 190.04 0.81 M190.04 0.81 C190.04 0.81, 190.04 0.81, 190.04 0.81 M190.04 0.81 C190.04 0.81, 190.04 0.81, 190.04 0.81" stroke="#1e1e1e" stroke-width="2" fill="none"></path></g></g><mask></mask></g><g clip-path="url(#4Ke1aXk_XqHYiFJWKGFIp)"><g stroke-linecap="round"><g transform="translate(1906.9071689777256 278.52273967068794) rotate(0 95.01950250634968 0.40305503187516933)"><path d="M0 0 C31.67 0.13, 158.37 0.67, 190.04 0.81 M0 0 C31.67 0.13, 158.37 0.67, 190.04 0.81" stroke="#1e1e1e" stroke-width="2" fill="none"></path></g><g transform="translate(1906.9071689777256 278.52273967068794) rotate(0 95.01950250634968 0.40305503187516933)"><path d="M190.04 0.81 L176.42 7.09 L176.47 -5.59 L190.04 0.81" stroke="none" stroke-width="0" fill="#1e1e1e" fill-rule="evenodd"></path><path d="M190.04 0.81 C186.22 2.57, 182.41 4.32, 176.42 7.09 M190.04 0.81 C186.86 2.27, 183.67 3.74, 176.42 7.09 M176.42 7.09 C176.44 2.16, 176.46 -2.77, 176.47 -5.59 M176.42 7.09 C176.43 4.3, 176.44 1.5, 176.47 -5.59 M176.47 -5.59 C180.81 -3.55, 185.14 -1.5, 190.04 0.81 M176.47 -5.59 C180.78 -3.56, 185.09 -1.53, 190.04 0.81 M190.04 0.81 C190.04 0.81, 190.04 0.81, 190.04 0.81 M190.04 0.81 C190.04 0.81, 190.04 0.81, 190.04 0.81" stroke="#1e1e1e" stroke-width="2" fill="none"></path></g></g><mask></mask></g><g clip-path="url(#4Ke1aXk_XqHYiFJWKGFIp)"><g transform="translate(826.144111983308 350.51287849975347) rotate(0 43.081852083933995 5.876512961725297)"><text x="0" y="0" font-family="Virgil, Segoe UI Emoji" font-size="9.402420738760496px" fill="#1e1e1e" text-anchor="start" style="white-space: pre;" direction="ltr" dominant-baseline="text-before-edge">customfield_13906</text></g></g><g clip-path="url(#4Ke1aXk_XqHYiFJWKGFIp)"><g transform="translate(945.4039461132243 350.5448158272619) rotate(0 22.282669067382812 5.876512961725297)"><text x="0" y="0" font-family="Virgil, Segoe UI Emoji" font-size="9.402420738760496px" fill="#1e1e1e" text-anchor="start" style="white-space: pre;" direction="ltr" dominant-baseline="text-before-edge">Tesoreria</text></g></g><g clip-path="url(#4Ke1aXk_XqHYiFJWKGFIp)"><g transform="translate(946.0668485798333 370.57846877818554) rotate(0 27.781646728515625 5.876512961725297)"><text x="0" y="0" font-family="Virgil, Segoe UI Emoji" font-size="9.402420738760496px" fill="#1e1e1e" text-anchor="start" style="white-space: pre;" direction="ltr" dominant-baseline="text-before-edge">Contabilidad</text></g></g><g clip-path="url(#4Ke1aXk_XqHYiFJWKGFIp)"><g transform="translate(825.5523479156527 372.01243360008664) rotate(0 42.591339111328125 5.876512961725297)"><text x="0" y="0" font-family="Virgil, Segoe UI Emoji" font-size="9.402420738760496px" fill="#1e1e1e" text-anchor="start" style="white-space: pre;" direction="ltr" dominant-baseline="text-before-edge">customfield_13907</text></g></g><g clip-path="url(#4Ke1aXk_XqHYiFJWKGFIp)"><g transform="translate(830.2143003162264 395.9703521350457) rotate(0 75.9894790649414 5.876512961725297)"><text x="0" y="0" font-family="Virgil, Segoe UI Emoji" font-size="9.402420738760496px" fill="#1e1e1e" text-anchor="start" style="white-space: pre;" direction="ltr" dominant-baseline="text-before-edge">ver funcional-attachments folder</text></g></g><g clip-path="url(#4Ke1aXk_XqHYiFJWKGFIp)"><g transform="translate(2142.1898580385173 346.8718856915275) rotate(0 75.9894790649414 5.876512961725297)"><text x="0" y="0" font-family="Virgil, Segoe UI Emoji" font-size="9.402420738760496px" fill="#1971c2" text-anchor="start" style="white-space: pre;" direction="ltr" dominant-baseline="text-before-edge">ver funcional-attachments folder</text></g></g><g clip-path="url(#4Ke1aXk_XqHYiFJWKGFIp)"><g transform="translate(89.48854277348005 242.1104780309965) rotate(0 65.7222325289668 7.9156758794656525)"><text x="65.72223252896679" y="0" font-family="Virgil, Segoe UI Emoji" font-size="6.3325407035725165px" fill="#1e1e1e" text-anchor="middle" style="white-space: pre;" direction="ltr" dominant-baseline="text-before-edge">Lunes a Jueves el horario es a las 11 a.m</text><text x="65.72223252896679" y="7.915675879465645" font-family="Virgil, Segoe UI Emoji" font-size="6.3325407035725165px" fill="#1e1e1e" text-anchor="middle" style="white-space: pre;" direction="ltr" dominant-baseline="text-before-edge">y el día Viernes es a las 10 a.m.</text></g></g><g clip-path="url(#4Ke1aXk_XqHYiFJWKGFIp)"><g transform="translate(1251.566037944678 354.3675060500635) rotate(0 101.79989072387934 62.15653733156705)"><text x="0" y="0" font-family="Virgil, Segoe UI Emoji" font-size="12.431307466313406px" fill="#1e1e1e" text-anchor="start" style="white-space: pre;" direction="ltr" dominant-baseline="text-before-edge">- hacer unión de cada una</text><text x="0" y="15.539134332891757" font-family="Virgil, Segoe UI Emoji" font-size="12.431307466313406px" fill="#1e1e1e" text-anchor="start" style="white-space: pre;" direction="ltr" dominant-baseline="text-before-edge">de las pestañas</text><text x="0" y="31.078268665783515" font-family="Virgil, Segoe UI Emoji" font-size="12.431307466313406px" fill="#1e1e1e" text-anchor="start" style="white-space: pre;" direction="ltr" dominant-baseline="text-before-edge">- el resultado será un solo excel</text><text x="0" y="46.617402998675274" font-family="Virgil, Segoe UI Emoji" font-size="12.431307466313406px" fill="#1e1e1e" text-anchor="start" style="white-space: pre;" direction="ltr" dominant-baseline="text-before-edge">con 3 pestañas que contiene</text><text x="0" y="62.15653733156703" font-family="Virgil, Segoe UI Emoji" font-size="12.431307466313406px" fill="#1e1e1e" text-anchor="start" style="white-space: pre;" direction="ltr" dominant-baseline="text-before-edge">    1. Origen - tesoreria</text><text x="0" y="77.69567166445879" font-family="Virgil, Segoe UI Emoji" font-size="12.431307466313406px" fill="#1e1e1e" text-anchor="start" style="white-space: pre;" direction="ltr" dominant-baseline="text-before-edge">    2. Destino - tesoreria</text><text x="0" y="93.23480599735055" font-family="Virgil, Segoe UI Emoji" font-size="12.431307466313406px" fill="#1e1e1e" text-anchor="start" style="white-space: pre;" direction="ltr" dominant-baseline="text-before-edge">    3. Hoja 1 - contabilidad</text><text x="0" y="108.7739403302423" font-family="Virgil, Segoe UI Emoji" font-size="12.431307466313406px" fill="#1e1e1e" text-anchor="start" style="white-space: pre;" direction="ltr" dominant-baseline="text-before-edge"></text></g></g><g clip-path="url(#4Ke1aXk_XqHYiFJWKGFIp)"><g stroke-linecap="round"><g transform="translate(917.110030826811 355.6999578748596) rotate(0 9.545111291488979 0.29458842424048726)"><path d="M0 0 C3.18 0.1, 15.91 0.49, 19.09 0.59 M0 0 C3.18 0.1, 15.91 0.49, 19.09 0.59" stroke="#1e1e1e" stroke-width="2" fill="none"></path></g><g transform="translate(917.110030826811 355.6999578748596) rotate(0 9.545111291488979 0.29458842424048726)"><path d="M19.09 0.59 L10.31 4.36 L10.56 -3.71 L19.09 0.59" stroke="none" stroke-width="0" fill="#1e1e1e" fill-rule="evenodd"></path><path d="M19.09 0.59 C17.09 1.45, 15.1 2.3, 10.31 4.36 M19.09 0.59 C16.96 1.51, 14.82 2.42, 10.31 4.36 M10.31 4.36 C10.39 2.02, 10.46 -0.32, 10.56 -3.71 M10.31 4.36 C10.37 2.57, 10.43 0.78, 10.56 -3.71 M10.56 -3.71 C12.66 -2.65, 14.76 -1.6, 19.09 0.59 M10.56 -3.71 C13.4 -2.28, 16.24 -0.85, 19.09 0.59 M19.09 0.59 C19.09 0.59, 19.09 0.59, 19.09 0.59 M19.09 0.59 C19.09 0.59, 19.09 0.59, 19.09 0.59" stroke="#1e1e1e" stroke-width="2" fill="none"></path></g></g><mask></mask></g><g clip-path="url(#4Ke1aXk_XqHYiFJWKGFIp)"><g stroke-linecap="round"><g transform="translate(918.0367073602042 378.1199843792773) rotate(0 9.545111291488979 0.29458842424048726)"><path d="M0 0 C3.18 0.1, 15.91 0.49, 19.09 0.59 M0 0 C3.18 0.1, 15.91 0.49, 19.09 0.59" stroke="#1e1e1e" stroke-width="2" fill="none"></path></g><g transform="translate(918.0367073602042 378.1199843792773) rotate(0 9.545111291488979 0.29458842424048726)"><path d="M19.09 0.59 L10.31 4.36 L10.56 -3.71 L19.09 0.59" stroke="none" stroke-width="0" fill="#1e1e1e" fill-rule="evenodd"></path><path d="M19.09 0.59 C15.72 2.03, 12.36 3.48, 10.31 4.36 M19.09 0.59 C16.71 1.61, 14.34 2.63, 10.31 4.36 M10.31 4.36 C10.38 2.31, 10.44 0.26, 10.56 -3.71 M10.31 4.36 C10.38 2.36, 10.44 0.36, 10.56 -3.71 M10.56 -3.71 C13.31 -2.33, 16.06 -0.94, 19.09 0.59 M10.56 -3.71 C13.19 -2.39, 15.82 -1.06, 19.09 0.59 M19.09 0.59 C19.09 0.59, 19.09 0.59, 19.09 0.59 M19.09 0.59 C19.09 0.59, 19.09 0.59, 19.09 0.59" stroke="#1e1e1e" stroke-width="2" fill="none"></path></g></g><mask></mask></g></svg>